<svg xmlns="http://www.w3.org/2000/svg" xmlns:xlink="http://www.w3.org/1999/xlink" width="80" zoomAndPan="magnify" viewBox="0 0 60 60" height="80" preserveAspectRatio="xMidYMid meet" version="1.0"><defs><clipPath id="af267e07cc"><path d="M 30 0 C 13.429688 0 0 13.429688 0 30 C 0 46.570312 13.429688 60 30 60 C 46.570312 60 60 46.570312 60 30 C 60 13.429688 46.570312 0 30 0 Z M 30 0 " clip-rule="nonzero"/></clipPath><clipPath id="aa10c99a95"><path d="M 2.941406 2.941406 L 57.058594 2.941406 L 57.058594 57.058594 L 2.941406 57.058594 Z M 2.941406 2.941406 " clip-rule="nonzero"/></clipPath><clipPath id="d61c76a826"><path d="M 30 2.941406 C 44.945312 2.941406 57.058594 15.054688 57.058594 30 C 57.058594 44.945312 44.945312 57.058594 30 57.058594 C 15.054688 57.058594 2.941406 44.945312 2.941406 30 C 2.941406 15.054688 15.054688 2.941406 30 2.941406 L 30 4.023438 C 15.652344 4.023438 4.023438 15.652344 4.023438 30 C 4.023438 44.347656 15.652344 55.976562 30 55.976562 C 44.347656 55.976562 55.976562 44.347656 55.976562 30 C 55.976562 15.652344 44.347656 4.023438 30 4.023438 Z M 30 2.941406 " clip-rule="nonzero"/></clipPath><clipPath id="df3d800f56"><path d="M 12.710938 15.867188 L 47.210938 15.867188 L 47.210938 44.367188 L 12.710938 44.367188 Z M 12.710938 15.867188 " clip-rule="nonzero"/></clipPath></defs><g clip-path="url(#af267e07cc)"><rect x="-6" width="72" fill="#302d41" y="-6" height="72" fill-opacity="1"/></g><g clip-path="url(#aa10c99a95)"><g clip-path="url(#d61c76a826)"><path fill="#6ce5e8" d="M 2.941406 2.941406 L 57.058594 2.941406 L 57.058594 57.058594 L 2.941406 57.058594 Z M 2.941406 2.941406 " fill-opacity="1" fill-rule="nonzero"/><path fill="#cba6f7" d="M 2.941406 2.941406 L 57.058594 2.941406 L 57.058594 57.058594 L 2.941406 57.058594 Z M 2.941406 2.941406 " fill-opacity="1" fill-rule="nonzero"/></g></g><g clip-path="url(#df3d800f56)"><path fill="#89dceb" d="M 17.425781 22.199219 C 17.425781 22.617188 17.464844 23.027344 17.542969 23.433594 C 17.625 23.84375 17.742188 24.238281 17.902344 24.625 C 18.058594 25.007812 18.25 25.371094 18.480469 25.71875 C 18.710938 26.0625 18.96875 26.382812 19.261719 26.679688 C 19.550781 26.972656 19.867188 27.234375 20.210938 27.464844 C 20.550781 27.695312 20.914062 27.890625 21.292969 28.050781 C 21.675781 28.210938 22.066406 28.332031 22.46875 28.410156 C 22.875 28.492188 23.28125 28.53125 23.691406 28.53125 C 24.105469 28.53125 24.511719 28.492188 24.914062 28.410156 C 25.320312 28.332031 25.710938 28.210938 26.089844 28.050781 C 26.472656 27.890625 26.832031 27.695312 27.175781 27.464844 C 27.515625 27.234375 27.835938 26.972656 28.125 26.679688 C 28.417969 26.382812 28.675781 26.0625 28.90625 25.71875 C 29.132812 25.371094 29.328125 25.007812 29.484375 24.625 C 29.640625 24.238281 29.761719 23.84375 29.839844 23.433594 C 29.921875 23.027344 29.960938 22.617188 29.960938 22.199219 C 29.960938 21.785156 29.921875 21.371094 29.839844 20.964844 C 29.761719 20.554688 29.640625 20.160156 29.484375 19.777344 C 29.328125 19.390625 29.132812 19.027344 28.90625 18.679688 C 28.675781 18.335938 28.417969 18.015625 28.125 17.722656 C 27.835938 17.425781 27.515625 17.164062 27.175781 16.933594 C 26.832031 16.703125 26.472656 16.507812 26.089844 16.347656 C 25.710938 16.1875 25.320312 16.070312 24.914062 15.988281 C 24.511719 15.90625 24.105469 15.867188 23.691406 15.867188 C 23.28125 15.867188 22.875 15.90625 22.46875 15.988281 C 22.066406 16.070312 21.675781 16.1875 21.292969 16.347656 C 20.914062 16.507812 20.550781 16.703125 20.210938 16.933594 C 19.867188 17.164062 19.550781 17.425781 19.261719 17.722656 C 18.96875 18.015625 18.710938 18.335938 18.480469 18.679688 C 18.25 19.027344 18.058594 19.390625 17.902344 19.777344 C 17.742188 20.160156 17.625 20.554688 17.542969 20.964844 C 17.464844 21.371094 17.425781 21.785156 17.425781 22.199219 Z M 26.828125 22.199219 C 26.828125 22.621094 26.746094 23.023438 26.589844 23.410156 C 26.429688 23.800781 26.203125 24.140625 25.910156 24.4375 C 25.613281 24.734375 25.277344 24.964844 24.890625 25.125 C 24.507812 25.285156 24.109375 25.367188 23.691406 25.367188 C 23.277344 25.367188 22.878906 25.285156 22.492188 25.125 C 22.109375 24.964844 21.769531 24.734375 21.476562 24.4375 C 21.183594 24.140625 20.957031 23.800781 20.796875 23.410156 C 20.636719 23.023438 20.558594 22.621094 20.558594 22.199219 C 20.558594 21.78125 20.636719 21.375 20.796875 20.988281 C 20.957031 20.601562 21.183594 20.257812 21.476562 19.960938 C 21.769531 19.664062 22.109375 19.433594 22.492188 19.273438 C 22.878906 19.113281 23.277344 19.03125 23.691406 19.03125 C 24.109375 19.03125 24.507812 19.113281 24.890625 19.273438 C 25.277344 19.433594 25.613281 19.664062 25.910156 19.960938 C 26.203125 20.257812 26.429688 20.601562 26.589844 20.988281 C 26.746094 21.375 26.828125 21.78125 26.828125 22.199219 Z M 14.289062 44.367188 L 33.09375 44.367188 C 33.304688 44.367188 33.503906 44.324219 33.695312 44.246094 C 33.886719 44.164062 34.054688 44.050781 34.203125 43.902344 C 34.351562 43.753906 34.464844 43.582031 34.542969 43.390625 C 34.621094 43.195312 34.664062 42.992188 34.664062 42.78125 L 34.664062 38.03125 C 34.664062 37.617188 34.621094 37.207031 34.542969 36.796875 C 34.460938 36.390625 34.34375 35.992188 34.183594 35.609375 C 34.027344 35.226562 33.835938 34.859375 33.605469 34.515625 C 33.378906 34.167969 33.117188 33.847656 32.828125 33.554688 C 32.535156 33.261719 32.21875 32.996094 31.875 32.765625 C 31.535156 32.535156 31.171875 32.339844 30.792969 32.183594 C 30.414062 32.023438 30.019531 31.902344 29.617188 31.820312 C 29.214844 31.738281 28.804688 31.699219 28.394531 31.699219 L 18.992188 31.699219 C 18.578125 31.699219 18.171875 31.738281 17.769531 31.820312 C 17.363281 31.902344 16.972656 32.023438 16.59375 32.183594 C 16.210938 32.339844 15.851562 32.535156 15.507812 32.765625 C 15.167969 32.996094 14.851562 33.261719 14.558594 33.554688 C 14.269531 33.847656 14.007812 34.167969 13.777344 34.515625 C 13.550781 34.859375 13.355469 35.226562 13.199219 35.609375 C 13.042969 35.992188 12.921875 36.390625 12.84375 36.796875 C 12.761719 37.207031 12.722656 37.617188 12.722656 38.03125 L 12.722656 42.78125 C 12.722656 42.992188 12.761719 43.195312 12.84375 43.390625 C 12.921875 43.582031 13.035156 43.753906 13.183594 43.902344 C 13.328125 44.050781 13.5 44.164062 13.691406 44.246094 C 13.882812 44.324219 14.082031 44.367188 14.289062 44.367188 Z M 15.855469 38.03125 C 15.855469 37.613281 15.9375 37.210938 16.09375 36.820312 C 16.253906 36.433594 16.480469 36.089844 16.773438 35.792969 C 17.070312 35.496094 17.40625 35.269531 17.792969 35.105469 C 18.175781 34.945312 18.574219 34.867188 18.992188 34.867188 L 28.394531 34.867188 C 28.808594 34.867188 29.210938 34.945312 29.59375 35.105469 C 29.976562 35.269531 30.316406 35.496094 30.609375 35.792969 C 30.902344 36.089844 31.128906 36.433594 31.289062 36.820312 C 31.449219 37.210938 31.527344 37.613281 31.527344 38.03125 L 31.527344 41.199219 L 15.855469 41.199219 Z M 47.199219 17.449219 C 47.199219 17.660156 47.160156 17.863281 47.078125 18.054688 C 47 18.25 46.886719 18.421875 46.742188 18.570312 C 46.59375 18.71875 46.425781 18.832031 46.230469 18.914062 C 46.039062 18.992188 45.839844 19.03125 45.632812 19.03125 L 36.230469 19.03125 C 36.023438 19.03125 35.820312 18.992188 35.628906 18.914062 C 35.4375 18.832031 35.269531 18.71875 35.121094 18.570312 C 34.972656 18.421875 34.859375 18.25 34.78125 18.054688 C 34.703125 17.863281 34.664062 17.660156 34.664062 17.449219 C 34.664062 17.238281 34.703125 17.039062 34.78125 16.84375 C 34.859375 16.648438 34.972656 16.476562 35.121094 16.328125 C 35.269531 16.179688 35.4375 16.066406 35.628906 15.988281 C 35.820312 15.90625 36.023438 15.867188 36.230469 15.867188 L 45.632812 15.867188 C 45.839844 15.867188 46.039062 15.90625 46.230469 15.988281 C 46.425781 16.066406 46.59375 16.179688 46.742188 16.328125 C 46.886719 16.476562 47 16.648438 47.078125 16.84375 C 47.160156 17.039062 47.199219 17.238281 47.199219 17.449219 Z M 47.199219 23.78125 C 47.199219 23.992188 47.160156 24.195312 47.078125 24.390625 C 47 24.582031 46.886719 24.753906 46.742188 24.902344 C 46.59375 25.050781 46.425781 25.164062 46.230469 25.246094 C 46.039062 25.324219 45.839844 25.367188 45.632812 25.367188 L 36.230469 25.367188 C 36.023438 25.367188 35.820312 25.324219 35.628906 25.246094 C 35.4375 25.164062 35.269531 25.050781 35.121094 24.902344 C 34.972656 24.753906 34.859375 24.582031 34.78125 24.390625 C 34.703125 24.195312 34.664062 23.992188 34.664062 23.78125 C 34.664062 23.574219 34.703125 23.371094 34.78125 23.175781 C 34.859375 22.984375 34.972656 22.8125 35.121094 22.664062 C 35.269531 22.515625 35.4375 22.402344 35.628906 22.320312 C 35.820312 22.238281 36.023438 22.199219 36.230469 22.199219 L 45.632812 22.199219 C 45.839844 22.199219 46.039062 22.238281 46.230469 22.320312 C 46.425781 22.402344 46.59375 22.515625 46.742188 22.664062 C 46.886719 22.8125 47 22.984375 47.078125 23.175781 C 47.160156 23.371094 47.199219 23.574219 47.199219 23.78125 Z M 47.199219 30.117188 C 47.199219 30.328125 47.160156 30.527344 47.078125 30.722656 C 47 30.917969 46.886719 31.085938 46.742188 31.234375 C 46.59375 31.382812 46.425781 31.5 46.230469 31.578125 C 46.039062 31.660156 45.839844 31.699219 45.632812 31.699219 L 36.230469 31.699219 C 36.023438 31.699219 35.820312 31.660156 35.628906 31.578125 C 35.4375 31.5 35.269531 31.382812 35.121094 31.234375 C 34.972656 31.085938 34.859375 30.917969 34.78125 30.722656 C 34.703125 30.527344 34.664062 30.328125 34.664062 30.117188 C 34.664062 29.90625 34.703125 29.703125 34.78125 29.511719 C 34.859375 29.316406 34.972656 29.144531 35.121094 28.996094 C 35.269531 28.847656 35.4375 28.734375 35.628906 28.652344 C 35.820312 28.574219 36.023438 28.53125 36.230469 28.53125 L 45.632812 28.53125 C 45.839844 28.53125 46.039062 28.574219 46.230469 28.652344 C 46.425781 28.734375 46.59375 28.847656 46.742188 28.996094 C 46.886719 29.144531 47 29.316406 47.078125 29.511719 C 47.160156 29.703125 47.199219 29.90625 47.199219 30.117188 Z M 47.199219 30.117188 " fill-opacity="1" fill-rule="nonzero"/></g></svg>